<?xml version="1.0" encoding="UTF-8" standalone="no"?>
<!DOCTYPE svg PUBLIC "-//W3C//DTD SVG 1.1//EN" "http://www.w3.org/Graphics/SVG/1.1/DTD/svg11.dtd">
<svg width="100%" height="100%" viewBox="0 0 1280 1280" version="1.1" xmlns="http://www.w3.org/2000/svg" xmlns:xlink="http://www.w3.org/1999/xlink" xml:space="preserve" xmlns:serif="http://www.serif.com/" style="fill-rule:evenodd;clip-rule:evenodd;stroke-linecap:round;stroke-linejoin:round;stroke-miterlimit:1.5;">
    <g>
        <g transform="matrix(1.001471,-0.176995,0,0.892129,176.280172,34.483722)">
            <path d="M-111.394,587.17L671.214,587.17L1057.199,815.375L1057.199,1038.765L274.592,1038.765L-111.394,810.56L-111.394,587.17Z" style="fill:none;stroke:rgb(212,175,55);stroke-width:8.58px;"/>
        </g>
        <g transform="matrix(1.001471,-0.176995,0,0.892129,176.280172,34.483722)">
            <path d="M1057.199,815.375L1057.199,1038.765L274.592,1038.765L274.592,815.375L1057.199,815.375ZM1049.748,823.869L282.043,823.869L282.043,1030.271L1049.748,1030.27L1049.748,823.869Z" style="fill:rgb(212,175,55);"/>
        </g>
        <g transform="matrix(0.733338,0.256625,0,0.991335,-122.697217,68.011351)">
            <path d="M782.686,448.319L782.686,649.354L255.571,649.354L255.571,448.319L782.686,448.319ZM772.51,456.294L265.747,456.294L265.747,641.378L772.51,641.378L772.51,456.294Z" style="fill:rgb(212,175,55);"/>
        </g>
        <g transform="matrix(1.64391,-0.290536,2.316918,0.810784,-1531.215371,279.996522)">
            <path d="M777.581,475.383L777.581,642.223L300.816,642.223L300.816,475.383L777.581,475.383ZM768.449,481.593L309.948,481.593L309.948,636.012L768.449,636.012L768.449,481.593Z" style="fill:rgb(212,175,55);"/>
        </g>
    </g>
    <g transform="matrix(0.062038,-0.010964,0.044088,0.015428,648.515025,578.910053)">
        <g transform="matrix(1,0,0,1,-2480,-2480)">
            <g transform="matrix(0.952213,-0.305435,0.305435,0.952213,-966.482177,1161.533285)">
                <path d="M4023.497,2959.491L4023.497,3932.129L3057.297,3932.129C3103.757,3822.595 3134.544,3724.285 3134.544,3656.093C3134.544,3378.305 2905.617,3152.777 2623.644,3152.777C2341.67,3152.777 2112.743,3378.305 2112.743,3656.093C2112.743,3724.285 2143.53,3822.595 2189.99,3932.129L1223.79,3932.129L1223.79,2959.491C1334.974,3005.261 1434.766,3035.591 1503.985,3035.591C1785.959,3035.591 2014.886,2810.063 2014.886,2532.275C2014.886,2254.488 1785.959,2028.959 1503.985,2028.959C1434.766,2028.959 1334.974,2059.289 1223.79,2105.059L1223.79,1132.422L2189.99,1132.422C2143.53,1022.888 2112.743,924.578 2112.743,856.386C2112.743,578.598 2341.67,353.07 2623.644,353.07C2905.617,353.07 3134.544,578.598 3134.544,856.386C3134.544,924.578 3103.757,1022.888 3057.297,1132.422L4023.497,1132.422L4023.497,2105.059C4134.681,2059.289 4234.473,2028.959 4303.692,2028.959C4585.666,2028.959 4814.593,2254.488 4814.593,2532.275C4814.593,2810.063 4585.666,3035.591 4303.692,3035.591C4234.473,3035.591 4134.681,3005.261 4023.497,2959.491Z" style="fill:rgb(212,175,55);"/>
            </g>
        </g>
    </g>
    <g transform="matrix(0.019881,0.006957,0,0.033242,241.355153,743.613044)">
        <g transform="matrix(1,0,0,1,-2480,-2480)">
            <g transform="matrix(0.952213,-0.305435,0.305435,0.952213,-966.482177,1161.533285)">
                <path d="M4023.497,2959.491L4023.497,3932.129L3057.297,3932.129C3103.757,3822.595 3134.544,3724.285 3134.544,3656.093C3134.544,3378.305 2905.617,3152.777 2623.644,3152.777C2341.67,3152.777 2112.743,3378.305 2112.743,3656.093C2112.743,3724.285 2143.53,3822.595 2189.99,3932.129L1223.79,3932.129L1223.79,2959.491C1334.974,3005.261 1434.766,3035.591 1503.985,3035.591C1785.959,3035.591 2014.886,2810.063 2014.886,2532.275C2014.886,2254.488 1785.959,2028.959 1503.985,2028.959C1434.766,2028.959 1334.974,2059.289 1223.79,2105.059L1223.79,1132.422L2189.99,1132.422C2143.53,1022.888 2112.743,924.578 2112.743,856.386C2112.743,578.598 2341.67,353.07 2623.644,353.07C2905.617,353.07 3134.544,578.598 3134.544,856.386C3134.544,924.578 3103.757,1022.888 3057.297,1132.422L4023.497,1132.422L4023.497,2105.059C4134.681,2059.289 4234.473,2028.959 4303.692,2028.959C4585.666,2028.959 4814.593,2254.488 4814.593,2532.275C4814.593,2810.063 4585.666,3035.591 4303.692,3035.591C4234.473,3035.591 4134.681,3005.261 4023.497,2959.491Z" style="fill:rgb(212,175,55);"/>
            </g>
        </g>
    </g>
    <g transform="matrix(0.024153,-0.004269,0,0.0287,870.183516,753.148394)">
        <g transform="matrix(1,0,0,1,-2480,-2480)">
            <g transform="matrix(0.952213,-0.305435,0.305435,0.952213,-966.482177,1161.533285)">
                <path d="M4023.497,2959.491L4023.497,3932.129L3057.297,3932.129C3103.757,3822.595 3134.544,3724.285 3134.544,3656.093C3134.544,3378.305 2905.617,3152.777 2623.644,3152.777C2341.67,3152.777 2112.743,3378.305 2112.743,3656.093C2112.743,3724.285 2143.53,3822.595 2189.99,3932.129L1223.79,3932.129L1223.79,2959.491C1334.974,3005.261 1434.766,3035.591 1503.985,3035.591C1785.959,3035.591 2014.886,2810.063 2014.886,2532.275C2014.886,2254.488 1785.959,2028.959 1503.985,2028.959C1434.766,2028.959 1334.974,2059.289 1223.79,2105.059L1223.79,1132.422L2189.99,1132.422C2143.53,1022.888 2112.743,924.578 2112.743,856.386C2112.743,578.598 2341.67,353.07 2623.644,353.07C2905.617,353.07 3134.544,578.598 3134.544,856.386C3134.544,924.578 3103.757,1022.888 3057.297,1132.422L4023.497,1132.422L4023.497,2105.059C4134.681,2059.289 4234.473,2028.959 4303.692,2028.959C4585.666,2028.959 4814.593,2254.488 4814.593,2532.275C4814.593,2810.063 4585.666,3035.591 4303.692,3035.591C4234.473,3035.591 4134.681,3005.261 4023.497,2959.491Z" style="fill:rgb(212,175,55);"/>
            </g>
        </g>
    </g>
</svg>
