<?xml version="1.0" encoding="UTF-8" standalone="no"?>
<!DOCTYPE svg PUBLIC "-//W3C//DTD SVG 1.1//EN" "http://www.w3.org/Graphics/SVG/1.1/DTD/svg11.dtd">
<svg width="100%" height="100%" viewBox="0 0 4960 4960" version="1.1" xmlns="http://www.w3.org/2000/svg" xmlns:xlink="http://www.w3.org/1999/xlink" xml:space="preserve" xmlns:serif="http://www.serif.com/" style="fill-rule:evenodd;clip-rule:evenodd;stroke-linejoin:round;stroke-miterlimit:2;">
    <g transform="matrix(0.952213,-0.305435,0.305435,0.952213,-966.482177,1161.533285)">
        <path d="M4023.497,2959.491L4023.497,3932.129L3057.297,3932.129C3103.757,3822.595 3134.544,3724.285 3134.544,3656.093C3134.544,3378.305 2905.617,3152.777 2623.644,3152.777C2341.67,3152.777 2112.743,3378.305 2112.743,3656.093C2112.743,3724.285 2143.53,3822.595 2189.99,3932.129L1223.79,3932.129L1223.79,2959.491C1334.974,3005.261 1434.766,3035.591 1503.985,3035.591C1785.959,3035.591 2014.886,2810.063 2014.886,2532.275C2014.886,2254.488 1785.959,2028.959 1503.985,2028.959C1434.766,2028.959 1334.974,2059.289 1223.79,2105.059L1223.79,1132.422L2189.99,1132.422C2143.53,1022.888 2112.743,924.578 2112.743,856.386C2112.743,578.598 2341.67,353.07 2623.644,353.07C2905.617,353.07 3134.544,578.598 3134.544,856.386C3134.544,924.578 3103.757,1022.888 3057.297,1132.422L4023.497,1132.422L4023.497,2105.059C4134.681,2059.289 4234.473,2028.959 4303.692,2028.959C4585.666,2028.959 4814.593,2254.488 4814.593,2532.275C4814.593,2810.063 4585.666,3035.591 4303.692,3035.591C4234.473,3035.591 4134.681,3005.261 4023.497,2959.491Z" style="fill:rgb(212,175,55);"/>
    </g>
</svg>
